<svg xmlns="http://www.w3.org/2000/svg" width="1200" height="750" viewBox="0 0 1200 750" role="img" aria-label="Admin overview screenshot placeholder">
  <defs>
    <linearGradient id="bg" x1="0" y1="0" x2="0" y2="1">
      <stop offset="0%" stop-color="#f4f8f4"/>
      <stop offset="100%" stop-color="#e8f2ea"/>
    </linearGradient>
  </defs>
  <rect width="1200" height="750" fill="url(#bg)"/>
  <rect x="48" y="48" width="1104" height="654" rx="20" fill="#fff" stroke="#d8e3dc" stroke-width="2"/>
  <rect x="48" y="48" width="1104" height="52" rx="20" fill="#0f2e22"/>
  <circle cx="84" cy="74" r="8" fill="#ef8a8a"/>
  <circle cx="108" cy="74" r="8" fill="#e8c468"/>
  <circle cx="132" cy="74" r="8" fill="#7bc67e"/>
  <text x="600" y="80" text-anchor="middle" fill="#eaf3de" font-family="system-ui,sans-serif" font-size="18" font-weight="600">ShiftSwift HR · Admin overview</text>
  <rect x="88" y="132" width="200" height="520" rx="12" fill="#f7faf7" stroke="#e2ebe4"/>
  <rect x="320" y="132" width="792" height="120" rx="12" fill="#f7faf7" stroke="#e2ebe4"/>
  <rect x="340" y="160" width="140" height="16" rx="4" fill="#c5d9ce"/>
  <rect x="340" y="190" width="220" height="36" rx="8" fill="#1d9e75" opacity="0.18"/>
  <rect x="320" y="276" width="250" height="160" rx="12" fill="#fff" stroke="#e2ebe4"/>
  <rect x="590" y="276" width="250" height="160" rx="12" fill="#fff" stroke="#e2ebe4"/>
  <rect x="860" y="276" width="252" height="160" rx="12" fill="#fff" stroke="#e2ebe4"/>
  <rect x="320" y="460" width="792" height="192" rx="12" fill="#fff" stroke="#e2ebe4"/>
  <text x="600" y="400" text-anchor="middle" fill="#5a6d64" font-family="system-ui,sans-serif" font-size="22" font-weight="600">Admin overview</text>
  <text x="600" y="432" text-anchor="middle" fill="#7a8f84" font-family="system-ui,sans-serif" font-size="16">Illustrative placeholder · assets/screenshots/admin-overview.webp</text>
</svg>
